<?xml version="1.0" encoding="UTF-8"?>
<svg xmlns="http://www.w3.org/2000/svg" width="1200" height="800" viewBox="0 0 1200 800">
  <defs>
    <linearGradient id="gGold" x1="0" y1="0" x2="1" y2="1">
      <stop offset="0%" stop-color="#E8C76D"/>
      <stop offset="100%" stop-color="#B8860B"/>
    </linearGradient>
    <filter id="shadow" x="-10%" y="-10%" width="120%" height="120%">
      <feDropShadow dx="0" dy="2" stdDeviation="6" flood-color="#000" flood-opacity="0.15"/>
    </filter>
  </defs>
  <rect x="30" y="30" width="1140" height="740" rx="18" fill="#ffffff" filter="url(#shadow)"/>
  <rect x="50" y="50" width="1100" height="700" rx="14" fill="#fff" stroke="#E4E6EA" stroke-width="2"/>
  <rect x="58" y="58" width="1084" height="684" rx="12" fill="none" stroke="url(#gGold)" stroke-width="4"/>
  <rect x="70" y="70" width="1060" height="660" rx="10" fill="#fff"/>
  <!-- Header -->
  <g transform="translate(90,100)">
    <rect x="0" y="0" width="110" height="110" rx="16" fill="#004000"/>
    <text x="20" y="70" font-family="Manrope, Arial" font-size="64" font-weight="800" fill="#ffffff">T</text>
    <text x="65" y="105" font-family="Manrope, Arial" font-size="72" font-weight="800" fill="#ffffff">B</text>
    <text x="65" y="105" font-family="Manrope, Arial" font-size="72" font-weight="800" fill="url(#gGold)">B</text>
  </g>
  <text x="1020" y="140" text-anchor="end" font-family="Manrope, Arial" font-size="28" font-weight="800" fill="#004000">Treinamentos Brasil</text>
  <text x="1020" y="170" text-anchor="end" font-family="Manrope, Arial" font-size="16" font-weight="700" fill="#B8860B">O MELHOR PARA OS MELHORES</text>

  <!-- Title -->
  <text x="600" y="300" text-anchor="middle" font-family="Manrope, Arial" font-size="48" font-weight="800" fill="#004000">CERTIFICADO</text>
  <text x="600" y="340" text-anchor="middle" font-family="Manrope, Arial" font-size="18" fill="#6b7280">Concedido ao aluno(a)</text>
  <rect x="200" y="360" width="800" height="2" fill="#E5E7EB"/>

  <!-- Name Placeholder -->
  <text x="600" y="430" text-anchor="middle" font-family="Manrope, Arial" font-size="34" font-weight="700" fill="#111827">NOME DO(A) PARTICIPANTE</text>
  <text x="600" y="470" text-anchor="middle" font-family="Manrope, Arial" font-size="18" fill="#374151">por concluir com êxito o curso</text>
  <text x="600" y="500" text-anchor="middle" font-family="Manrope, Arial" font-size="22" font-weight="700" fill="#004000">"Título do Curso" — Carga horária: 160h</text>

  <g transform="translate(200,560)">
    <rect x="0" y="0" width="250" height="54" rx="10" fill="url(#gGold)"/>
    <text x="125" y="36" text-anchor="middle" font-family="Manrope, Arial" font-size="16" font-weight="800" fill="#111">VALIDADO EM ATÉ 48H</text>
  </g>

  <!-- Signatures -->
  <g transform="translate(200,640)">
    <text x="0" y="36" font-family="Manrope, Arial" font-size="14" fill="#6b7280">Instrutor Responsável</text>
    <rect x="0" y="0" width="260" height="2" fill="#E5E7EB"/>
  </g>
  <g transform="translate(740,640)">
    <text x="0" y="36" font-family="Manrope, Arial" font-size="14" fill="#6b7280">Coordenação</text>
    <rect x="0" y="0" width="260" height="2" fill="#E5E7EB"/>
  </g>

  <text x="600" y="740" text-anchor="middle" font-family="Manrope, Arial" font-size="12" fill="#6b7280">Documento ilustrativo. A versão final possui QR Code e código de verificação.</text>
</svg>
